#!OML:ASF F:\VICON\USERDATA\INSTALL\rory3\rory3.ASF
:FULLY-SPECIFIED
:DEGREES
354
root 3.16018 17.2375 -23.9029 -0.459435 2.29041 7.90583
lowerback 29.0772 -0.0388569 0.885858
upperback 4.78269 0.977737 5.91459
thorax -10.7938 0.555052 5.8949
lowerneck -12.3332 -4.65192 -5.7044
upperneck 15.0021 -4.41517 -4.81227
head 6.65145 -2.85412 -1.03075
rclavicle 7.95139e-015 -2.22639e-014
rhumerus -26.1419 -17.0241 -50.1086
rradius 84.8862
rwrist 28.7629
rhand -16.3344 8.83906
rfingers 7.12502
rthumb 9.87757 -20.9092
lclavicle 7.95139e-015 -2.22639e-014
lhumerus -52.4556 8.69416 79.8377
lradius 51.5823
lwrist 5.09627
lhand -11.1841 46.5374
lfingers 7.12502
lthumb 14.8431 75.9857
rfemur -32.5913 3.37868 14.3585
rtibia 50.0822
rfoot -13.6041 -11.2603
rtoes 18.1657
lfemur -4.93915 0.322396 -24.2832
ltibia 52.3597
lfoot -7.22469 -11.1299
ltoes -34.9424
355
root 3.1434 17.2103 -24.0664 -0.488391 2.49278 7.72937
lowerback 28.8402 -0.182352 1.08208
upperback 4.74059 0.860556 6.03412
thorax -10.7106 0.495972 5.95677
lowerneck -12.2307 -4.55229 -5.78727
upperneck 14.9975 -4.25426 -4.92114
head 6.63266 -2.78958 -1.03449
rclavicle -3.49861e-014 3.49861e-014
rhumerus -26.9649 -16.6608 -50.6674
rradius 83.2241
rwrist 27.9688
rhand -18.6054 10.316
rfingers 7.12502
rthumb 7.68608 -19.5243
lclavicle -3.49861e-014 3.49861e-014
lhumerus -52.293 8.74806 79.941
lradius 51.8757
lwrist 4.99435
lhand -11.0123 46.6279
lfingers 7.12502
lthumb 15.0087 76.064
rfemur -33.3587 3.05747 14.6649
rtibia 50.1399
rfoot -12.3708 -11.7888
rtoes 13.8504
lfemur -3.68131 0.530023 -24.1915
ltibia 51.7997
lfoot -6.17737 -12.5351
ltoes -36.3548
356
root 3.12813 17.1688 -24.2345 -0.446346 2.71328 7.88268
lowerback 28.6063 -0.126329 1.10372
upperback 4.99396 0.910265 6.00231
thorax -10.3039 0.50886 5.86971
lowerneck -13.777 -4.66883 -5.41815
upperneck 15.4938 -4.297 -5.15474
head 7.04593 -2.84 -1.22474
rclavicle -7.95139e-015 -5.40694e-014
rhumerus -27.1078 -17.4158 -51.3412
rradius 81.0003
rwrist 27.0078
rhand -20.5433 11.5802
rfingers 7.12502
rthumb 5.81527 -18.32
lclavicle -7.95139e-015 -5.40694e-014
lhumerus -51.1506 8.39468 80.2544
lradius 52.1003
lwrist 4.88542
lhand -10.8111 47.4193
lfingers 7.12502
lthumb 15.2025 76.8408
rfemur -33.9824 2.90061 14.3881
rtibia 50.2648
rfoot -12.4664 -11.2522
rtoes 18.5819
lfemur -2.56724 0.587136 -24.5263
ltibia 51.1572
lfoot -5.02619 -13.4772
ltoes -37.1099
357
root 3.11257 17.1417 -24.402 -0.363879 2.70913 7.80643
lowerback 28.2042 -0.159537 0.897727
upperback 4.70963 0.829772 6.20634
thorax -10.4255 0.488894 6.25676
lowerneck -12.5283 -4.56084 -5.66639
upperneck 15.2668 -4.20136 -5.22342
head 6.76229 -2.7943 -1.15905
rclavicle 2.38542e-014 0
rhumerus -27.7272 -16.7545 -51.6319
rradius 78.5113
rwrist 25.9424
rhand -21.8881 12.7707
rfingers 7.12502
rthumb 4.51682 -17.1611
lclavicle 2.38542e-014 0
lhumerus -51.6483 8.58856 80.3699
lradius 52.6107
lwrist 4.96688
lhand -10.689 48.083
lfingers 7.12502
lthumb 15.3201 77.4955
rfemur -34.7856 2.86819 14.4106
rtibia 50.3756
rfoot -12.1091 -10.9271
rtoes 20.8924
lfemur -1.47963 0.825947 -24.6388
ltibia 50.3626
lfoot -3.75373 -13.8533
ltoes -37.381
358
root 3.10469 17.1091 -24.5708 -0.262406 2.96769 7.78534
lowerback 28.395 -0.240602 1.19384
upperback 4.46434 0.828498 6.12284
thorax -10.8004 0.485175 6.00258
lowerneck -13.3956 -4.57331 -5.24605
upperneck 16.0557 -4.14408 -5.50703
head 7.15228 -2.79968 -1.35215
rclavicle 1.35174e-014 3.18055e-014
rhumerus -28.2013 -17.1685 -52.1717
rradius 75.8171
rwrist 25.6511
rhand -22.5447 13.7493
rfingers 7.12502
rthumb 3.88278 -16.195
lclavicle 1.35174e-014 3.18055e-014
lhumerus -51.3639 8.15645 80.4492
lradius 52.8315
lwrist 5.17371
lhand -11.0046 48.0181
lfingers 7.12502
lthumb 15.0161 77.4536
rfemur -35.65 2.48303 14.3777
rtibia 50.5861
rfoot -11.588 -10.7028
rtoes 21.3793
lfemur -0.365242 0.751509 -24.883
ltibia 49.462
lfoot -2.83949 -14.9838
ltoes -36.4847
